M48
;GenerationSoftware,Autodesk,EAGLE,9.3.2*%
;CreationDate,2019-04-25T22:34:12Z*%
FMAT,2
ICI,OFF
METRIC,TZ,000.000
T7C0.700
T6C0.813
T5C1.016
T4C1.067
T3C1.100
T2C3.200
T1C3.200
%
G90
M71
T1
X15407Y60136
X90337Y60136
X96687Y11876
T2
X15432Y60085
X90362Y60085
X14162Y11825
X66232Y44845
X96712Y11825
X66232Y16905
T3
X21654Y66905
X19154Y66905
X6194Y38550
X6194Y36050
X6194Y33550
X6194Y31050
X6194Y28550
X6194Y26050
X6194Y23550
X6194Y21050
X104224Y11560
X51241Y6005
X104224Y16560
X104224Y19060
X104224Y21560
X104224Y14060
X104224Y24060
X104224Y26560
X104224Y29060
X22834Y5985
X25334Y5985
X27834Y5985
X30334Y5985
X32834Y5985
X35334Y5985
X57691Y6045
X60191Y6045
X48741Y6005
X31654Y66905
X29154Y66905
X26654Y66905
X24154Y66905
T4
X96687Y27116
X94147Y24576
X96687Y24576
X94147Y22036
X96687Y22036
X94147Y19496
X96687Y19496
X96687Y60136
X94147Y16956
X96687Y16956
X63667Y60136
X96687Y49976
X61127Y60136
X58587Y60136
X56047Y60136
X53507Y60136
X50967Y60136
X48427Y60136
X45887Y60136
X41823Y60136
X36743Y60136
X34203Y60136
X31663Y60136
X29123Y60136
X66207Y37276
X26583Y60136
X24043Y60136
X21503Y60136
X18963Y60136
X94147Y27116
X96687Y29656
X94147Y29656
X96687Y32196
X94147Y32196
X96687Y34736
X94147Y34736
X96687Y37276
X94147Y37276
X96687Y39816
X94147Y39816
X96687Y42356
X94147Y42356
X96687Y44896
X94147Y44896
X96687Y47436
X94147Y47436
X39283Y60136
X94147Y49976
X96687Y52516
X94147Y52516
X96687Y55056
X94147Y55056
X96687Y57596
X94147Y57596
X86527Y60136
X83987Y60136
X81447Y60136
X78907Y60136
X76367Y60136
X73827Y60136
X71287Y60136
X68747Y60136
X63667Y39816
X63667Y37276
X63667Y34736
X66207Y39816
X66207Y34736
X94147Y60136
T5
X91607Y11876
X89067Y11876
X86527Y11876
X83987Y11876
X78907Y11876
X76367Y11876
X73827Y11876
X40807Y11876
X38267Y11876
X35727Y11876
X68747Y11876
X66207Y11876
X63667Y11876
X61127Y11876
X58587Y11876
X56047Y11876
X53507Y11876
X43347Y11876
X50967Y11876
X45887Y11876
X81447Y11876
X28100Y11863
X30640Y11863
X33187Y11875
T6
X34464Y36640
X34464Y39180
X34464Y41720
X86124Y48090
X83584Y48090
X67984Y51800
X66714Y53705
X65444Y51800
X51824Y34470
X50554Y36375
X49284Y34470
X50424Y45210
X52329Y46480
X50424Y47750
X8374Y57100
X8374Y46940
X50164Y21160
X40004Y21160
X22784Y28520
X12624Y28520
X88044Y54320
X77884Y54320
X75824Y41120
X75824Y30960
X34464Y31560
X12784Y46870
X71344Y16390
X71344Y26550
X55244Y48160
X65404Y48160
X80184Y41270
X80184Y31110
X50174Y16770
X40014Y16770
X15324Y42310
X15324Y32150
X50174Y26510
X40014Y26510
X12784Y57030
X26844Y41720
X26844Y39180
X26844Y31560
X26844Y29020
X26844Y36640
X26844Y34100
X26844Y26480
X26844Y23940
X34464Y23940
X34464Y26480
X34464Y29020
X34464Y34100
T7
X19500Y6250
X69544Y55570
X19500Y18000
X35294Y51820
X84500Y43500
X84500Y38000
X60000Y8000
X55000Y8000
X108250Y33750
X102500Y33750
X47044Y55820
X47044Y49570
X67544Y25820
X61794Y25820
X46044Y39320
X50544Y39320
X78294Y47320
X74044Y47320
X74544Y55570
X43544Y51820
X20794Y51070
X20794Y38820
X41794Y40820
X41794Y48570
X9500Y24366
X9500Y32754
X19500Y24000
X19500Y2500
M30