M48
;GenerationSoftware,Autodesk,EAGLE,9.5.2*%
;CreationDate,2020-02-19T14:21:03Z*%
FMAT,2
ICI,OFF
METRIC,TZ,000.000
T4C1.000
T3C1.100
T2C3.000
T1C3.350
%
G90
M71
T1
X11189Y19342
X35966Y19342
X11214Y70460
X35966Y70460
X21996Y78677
X21971Y12649
T2
X2540Y2540
T3
X36443Y13579
X36443Y9769
T4
X9611Y62833
X9611Y60293
X9611Y57753
X9611Y55213
X9611Y52673
X9611Y50133
X9611Y47593
X9611Y45053
X9611Y42513
X9611Y39973
X9611Y37433
X9611Y34893
X9611Y27273
X37551Y27273
X37551Y29813
X37551Y32353
X37551Y34893
X37551Y37433
X37551Y39973
X37551Y42513
X37551Y45053
X37551Y47593
X37551Y50133
X37551Y52673
X37551Y55213
X37551Y57753
X37551Y60293
X37551Y62833
X9611Y29813
X9611Y32353
M30